<?xml version="1.0" encoding="UTF-8"?>
<svg id="Layer_1" data-name="Layer 1" xmlns="http://www.w3.org/2000/svg" xmlns:xlink="http://www.w3.org/1999/xlink" viewBox="0 0 20 20">
  <defs>
    <clipPath id="clippath">
      <rect width="20" height="20" style="fill: none;"/>
    </clipPath>
  </defs>
  <g style="clip-path: url(#clippath);">
    <g>
      <path d="M19.6,10.23c0-.71-.06-1.39-.18-2.05h-9.42v3.87h5.38c-.23,1.25-.94,2.31-2,3.02v2.51h3.23c1.89-1.74,2.98-4.3,2.98-7.35Z" style="fill: #4285f4;"/>
      <path d="M10,20c2.7,0,4.96-.9,6.62-2.42l-3.23-2.51c-.9.6-2.04.95-3.39.95-2.6,0-4.81-1.76-5.6-4.12H1.06v2.59c1.65,3.27,5.03,5.51,8.94,5.51Z" style="fill: #34a853;"/>
      <path d="M4.4,11.9c-.2-.6-.31-1.24-.31-1.9s.11-1.3.31-1.9v-2.59H1.06c-.68,1.35-1.06,2.88-1.06,4.49s.39,3.14,1.06,4.49l3.34-2.59Z" style="fill: #fbbc04;"/>
      <path d="M10,3.98c1.47,0,2.79.5,3.82,1.5l2.87-2.87c-1.73-1.61-4-2.6-6.69-2.6C6.09,0,2.71,2.24,1.06,5.51l3.34,2.59c.79-2.36,2.99-4.12,5.6-4.12Z" style="fill: #e94235;"/>
    </g>
  </g>
</svg>